<svg id="Layer_1" data-name="Layer 1" xmlns="http://www.w3.org/2000/svg" viewBox="0 0 100 100"><defs><style>.cls-1{fill:none;}.cls-2,.cls-6{fill:#f6891f;}.cls-3{fill:#ffdba0;}.cls-4{fill:#3b1546;}.cls-5{fill:#360f40;}.cls-6{font-size:7.83px;font-family:Century;}.cls-7{letter-spacing:-0.09em;}.cls-8{letter-spacing:-0.02em;}</style></defs><rect class="cls-1" width="100" height="100"/><polygon class="cls-2" points="21.05 9.62 29.91 9.62 29.91 17.69 46.16 17.69 46.16 9.47 55.02 9.47 55.02 17.69 71.41 17.69 71.41 9.47 80.46 9.47 80.46 23.14 21.05 23.14 21.05 9.62"/><polygon class="cls-3" points="79.89 81.89 79.89 30.35 20.56 30.35 20.56 81.89 50.22 71.53 79.89 81.89"/><polygon class="cls-4" points="77.05 79.29 77.05 31.31 23.71 31.31 23.71 79.29 50.38 69.65 77.05 79.29"/><polygon class="cls-3" points="75.51 77.18 75.51 32.58 25.25 32.58 25.25 77.18 50.38 68.22 75.51 77.18"/><rect class="cls-5" x="42.36" y="39.19" width="16.79" height="4.38"/><rect class="cls-5" x="34.38" y="51.55" width="20.7" height="4.73" transform="translate(98.65 9.19) rotate(90)"/><rect class="cls-5" x="42.36" y="49.96" width="16.79" height="4.38"/><text class="cls-6" transform="translate(5.31 94.81) scale(0.95 1)">FPO<tspan class="cls-7" x="16.53" y="0">L</tspan><tspan x="21.03" y="0">Y STUDENT SHO</tspan><tspan class="cls-8" x="88.31" y="0">P</tspan></text></svg>