<svg id="Layer_1" data-name="Layer 1" xmlns="http://www.w3.org/2000/svg" viewBox="0 0 155.81 155.81"><defs><style>.cls-1{fill:none;}.cls-2{fill:#f78f1e;}.cls-3{fill:#09060a;}.cls-4{fill:#f8f7f9;}.cls-5{fill:#e16926;}</style></defs><rect class="cls-1" width="155.81" height="155.81"/><polygon class="cls-2" points="124.48 131.91 124.48 43.69 32.03 43.69 32.03 131.91 78.25 114.19 124.48 131.91"/><polygon class="cls-3" points="120.06 123.54 120.06 48.79 36.94 48.79 36.94 123.54 78.5 108.52 120.06 123.54"/><polygon class="cls-4" points="117.66 120.26 117.66 50.76 39.34 50.76 39.34 120.26 78.5 106.3 117.66 120.26"/><rect class="cls-5" x="66.01" y="61.06" width="26.15" height="6.82"/><path class="cls-5" d="M38.1,63.9V31.64h7.38V63.9A5.22,5.22,0,0,0,42,62.33,5.29,5.29,0,0,0,38.1,63.9Z" transform="translate(27.91 36.24)"/><rect class="cls-5" x="66.01" y="77.84" width="26.15" height="6.82"/></svg>