<?xml version="1.0" encoding="utf-8"?>
<!-- Generator: Adobe Illustrator 25.1.0, SVG Export Plug-In . SVG Version: 6.00 Build 0)  -->
<svg version="1.1" id="Layer_1" xmlns="http://www.w3.org/2000/svg" xmlns:xlink="http://www.w3.org/1999/xlink" x="0px" y="0px"
	 viewBox="0 0 300 250" style="enable-background:new 0 0 300 250;" xml:space="preserve">
<style type="text/css">
	.st0{fill:#D65A27;}
	.st1{fill:#F8F7F7;}
	.st2{fill:#030202;}
	.st3{fill:#FFF8F8;}
	.st4{fill:#767576;}
	.st5{font-family:'PoplarStd';}
	.st6{font-size:33.6714px;}
</style>
<g>
	<path class="st0" d="M54.17,51.35c0-5.93,0-11.86,0-17.79c0.22-15.35,9.67-27.59,21.42-29.9c9.64-1.9,17.69,3.49,19.77,4.97
		c5.69,4.93,8.98,9.99,10.82,13.42c2.66,4.94,3.77,9.2,4.74,12.98c1.66,6.49,2.17,12.15,2.3,16.32l-7.65,0
		c0.03-3.76-0.24-8.37-1.28-13.53c-1.36-6.81-3.59-12.33-5.59-16.37c-1.01-1.97-3.32-5.75-7.78-8.35
		c-5.45-3.19-13.26-4.13-18.64-1.02C59.1,19.7,61.19,51.35,61.19,51.35L54.17,51.35z"/>
	<path class="st0" d="M78.28,51.2c0.19-2.73,0.55-6.57,1.33-11.12c1.07-6.2,2.09-12.12,4.61-17.61c0.4-0.86,9.31-19.62,22.67-19.33
		c5.47,0.12,9.89,3.4,13.07,5.75c5.21,3.86,7.88,8.3,9.3,10.62c4.08,6.68,5.34,13.03,5.78,16.75c0.76,4.98,1.52,9.96,2.28,14.94
		c-2.55,0-5.1,0-7.65,0c-0.07-5.64-0.69-10.26-1.28-13.53c-0.81-4.5-1.92-9.92-5.26-16.03c-1.96-3.59-3.59-6.57-7.14-9.05
		c-1.28-0.89-5.91-4.14-10.89-3.44c-8.19,1.14-12.45,12.29-15.49,20.21c-1.82,4.74-4.01,12.15-4.32,21.79
		c-0.86-0.04-1.74-0.08-2.64-0.06C81.2,51.12,79.74,51.16,78.28,51.2z"/>
</g>
<path class="st0" d="M15.38,144.55l-1.42,85.36l108.09,16.83V122.79c0.64-4.99,2.67-14.49,10.23-22.29
	c1.67-1.72,3.38-3.13,5.03-4.28c0-11.6,0-23.21,0-34.81H28.52l0.35,36.05c-2.51,2.87-5.51,6.88-8.09,12.1
	c-3.42,6.9-4.8,13.23-5.4,17.66"/>
<path class="st0" d="M127.57,246.75l41.32-10.2V121.26c0,0-1.02-9.69-14.28-23.34l-0.38-41.45h2.81l-0.13-5.48H27.72v8.16
	l112.86-0.13l0.77,39.28c-2.43,1.5-5.66,3.97-8.43,7.83c-1.74,2.42-2.71,4.58-3.14,5.6c-2.01,4.83-2.15,9.1-2.18,10.86
	C127.46,129.32,127.33,178.79,127.57,246.75z"/>
<path class="st1" d="M16.09,206.36c0.27-18.56,0.54-37.12,0.81-55.69l103.29,4.76v64.95C85.49,215.71,50.79,211.04,16.09,206.36z"/>
<path class="st1" d="M178.29,290.9"/>
<path class="st2" d="M155,41.67"/>
<polygon class="st3" points="129.69,220.39 166.63,211.72 166.63,154.08 129.69,157.65 "/>
<text transform="matrix(1 0 0 1 162.4574 89.5093)" class="st4 st5 st6">FPOLYSHOP</text>
</svg>
